<svg id="artwork" xmlns="http://www.w3.org/2000/svg" viewBox="0 0 148.74 53.36"><defs><style>.cls-1,.cls-2{fill:#fff;}.cls-2{font-size:29.42px;font-family:Lobster-Regular, Lobster;}</style></defs><g id="Logo"><g id="hair"><path id="Brow" class="cls-1" d="M8.26,17a11.74,11.74,0,0,1,2.78.22,3.31,3.31,0,0,1,1,.67c.38.38.65.65.76.64s.12-.5-.34-1a2.56,2.56,0,0,0-1.09-.8A5.41,5.41,0,0,0,10,16.53a14.49,14.49,0,0,0-1.67.1" transform="translate(-0.22)"/><path class="cls-1" d="M27.33,22.91A8.49,8.49,0,0,1,27,19.55a6.34,6.34,0,0,1,1.38-2.78c1.45-1.77,1.26-4.46,1.06-5.87a5.72,5.72,0,0,0-1.08-2.63c-.37-.6,1.79,1.09,2,2.3s.73,3.81-.8,5.9-2.19,2.59-2.37,4A6.44,6.44,0,0,0,27.33,22.91Z" transform="translate(-0.22)"/><path class="cls-1" d="M10.42,31.11c-.24-.52-3.68-2.3-4.77-3.28-.22-.19.82.22,1.41.55a25.38,25.38,0,0,1,2.28,1.5s-.16-.22-.51-.63a9.74,9.74,0,0,1-1.33-1.9A3.45,3.45,0,0,1,7.3,27c-1.26-2.31-.42-6-.24-6.79s3.72-7.19,4-8.75A5,5,0,0,0,11,9.77a24.07,24.07,0,0,1-2.12,4.41,33.07,33.07,0,0,1-2.33,3.15c-.41.28,2-3.56,2-3.77s-4.32,3.1-5.32,5.11c-.91,1.85-1.33,3.54-1,4.55,0,0-.9-3.14-.41-4.79a8.06,8.06,0,0,1,.65-1.79l-.7.69A12.4,12.4,0,0,1,6.38,6.63,19.59,19.59,0,0,0,3.82,11c-.73,1.84-.78,4.15-.5,4.33S8.05,13.19,9,11a12.78,12.78,0,0,0,.84-5.11A1.73,1.73,0,0,0,9,4.57a3.67,3.67,0,0,0-2.34-.79A8.07,8.07,0,0,0,3.49,5.39C-.42,8.1.22,14.1.33,14.94c.06.53,1.66,2.54,1,3.69C-1,22.52,4.06,28.2,4.06,28.2c0,5.32,3.4,6.59,4.72,8.32a3.52,3.52,0,0,1,.4,3.57s1.79-1.21,2.54-5.35A5,5,0,0,0,10.09,30C10.35,30.66,10.6,31.48,10.42,31.11ZM4.94,26.58a6.25,6.25,0,0,1-.65-2.86,5,5,0,0,1,.88-2.56,12.31,12.31,0,0,1,1.21-1.41S5,22.38,5.09,23.67A8.3,8.3,0,0,0,6,27.36,2,2,0,0,1,4.94,26.58Zm3.3,4.78a6.41,6.41,0,0,1-1.85-1.21A2,2,0,0,1,6,29.32H6c0,.08.22.65,2.34,1.36a4,4,0,0,1,2.56,3.22A5.75,5.75,0,0,0,8.24,31.36Z" transform="translate(-0.22)"/><path class="cls-1" d="M7.36,36.06a7.89,7.89,0,0,1,.21,3.11c-.3,1.12-1.85,1.89-1.85,1.89s.65.82,2.33-1S7.36,36.06,7.36,36.06Z" transform="translate(-0.22)"/><path class="cls-1" d="M17,8.1c4.44.88,5.19,6.76,6,11,.29,1.54,2.23,3.15,2.47,3.39a4,4,0,0,0,1.83,1c.09-.09-.3-.6-.49-1.28a7.38,7.38,0,0,1,.38-4.66c.9-2.44,2-5,1.56-7.25S26.42,6.1,24,4.7a16.11,16.11,0,0,0-8.14-2.43l-.38,0a3,3,0,0,1,.38,0c1.4,0,6.34,0,9.12,2.55.38.36-1.88-3.67-5.85-4.4s-5.72-.52-7.66.77-2,2.66-2,2.66S10.38,6.78,17,8.1Z" transform="translate(-0.22)"/><path class="cls-1" d="M31.59,33.93c-1-2.5-5.4-2-7.61-2.9s-2.08-1.31-2.1-1c-.2,2.72,6.43,5,6.43,5s-6.93-.13-7.45-3.06,1.67-3,1.67-3a3.23,3.23,0,0,1-1.75-1c-.81-.89-.69-2.47-.49-2.07s2.18,3,4.34,3.25a5.24,5.24,0,0,0,3.89-1.45,5.21,5.21,0,0,1-2.79.05c-.85-.16-4.23-2.37-4.18-8.93S20.5,11.83,18.83,10a4.33,4.33,0,0,0-3-1c2.92.52,3.89,5.26,3.66,4.92-1.61-2.42-8.8-7.31-8.8-7.31A3.22,3.22,0,0,0,11.21,9c.78,1,2.39,2,3.18,3.24a9.12,9.12,0,0,1,1.22,5.16c-.09,1.57-.87,4.11-.61,6.66.24,2.39,4.48,4.14,5,4.34,0,0,.05,0,.05,0h0l-.05,0c-.15,0-.63.15-1.54,2.61-1.12,3,2.36,8.53,2.36,8.53-1.93,0-3.17-2.58-3.17-2.58a6.47,6.47,0,0,0,.6,3.29h0a5.82,5.82,0,0,0,.12,2.61,4,4,0,0,0,2,2.34c2.51,1.24,3.51,1.43,3.71,2.4s-.55,3.54-1.24,4c0,0,4.55-.43,3.75-5a3.34,3.34,0,0,0-1.55-1.47c-1-.47-2.42-.7-3.67-1.17a5.46,5.46,0,0,1-2.18-1.31c-.36-.45-.28-1-.39-1.3a3.09,3.09,0,0,0,.67.95A8.8,8.8,0,0,0,25,43.85a3.9,3.9,0,0,1,2.9,1.24c.35.34-.51-1.34-1.11-2.47a29.35,29.35,0,0,0-3.64-1.07,29.35,29.35,0,0,1,3.64,1.07l-.52-1a1.68,1.68,0,0,1,1.72,1.39v0a13,13,0,0,0,.32,1.32c.22.67.17,1.43.34,1.48s.3-.74.42-1.4a7.85,7.85,0,0,1,.15-.87c.14-.91.26-1.75.26-1.75S32.6,36.43,31.59,33.93Zm-2.66,7.76S26,39.94,25.06,39.51a13.39,13.39,0,0,1-3.36-2.42c-.12-.34,3.18.65,4.43,1.18a9.91,9.91,0,0,1,2.62,1.44A3.27,3.27,0,0,1,28.93,41.69Zm-4.92-5a3.75,3.75,0,0,1-2.15-.72,3.62,3.62,0,0,1-1.31-2.37,12.28,12.28,0,0,0,3.09,2.19c1.19.38,4,.89,4.5,1.23l1.27.84A38.75,38.75,0,0,0,24,36.66Z" transform="translate(-0.22)"/><path class="cls-1" d="M30.47,24.72a3.59,3.59,0,0,1-2.73.87,5.72,5.72,0,0,1-2.3-.87c-1.4-1-3-2.78-3-3.83-.29.52.3,2.73.89,4.05a5.18,5.18,0,0,0,2.18,2.33,5.69,5.69,0,0,0,2.65.17,5,5,0,0,0,2.8-1.16,5,5,0,0,0,.86-3.74A5.09,5.09,0,0,1,30.47,24.72Z" transform="translate(-0.22)"/><path class="cls-1" d="M30.62,27.86A6.27,6.27,0,0,1,26,29.37a11.48,11.48,0,0,0,3.2.39,4.46,4.46,0,0,0,3-.86c2.33-2,.56-5.35.56-4.82A4.8,4.8,0,0,1,30.62,27.86Z" transform="translate(-0.22)"/><path class="cls-1" d="M32.3,30.88c-2.33-.86-7.77-.17-7.77-.17s2.27.37,4.29.88a8.8,8.8,0,0,1,2.81,1,2.31,2.31,0,0,1,.69.73,2.89,2.89,0,0,1,.27.56c.2.61.14,1.82.23,1.67a6.7,6.7,0,0,0,.57-1.77,5.19,5.19,0,0,0,.08-1.3,3.65,3.65,0,0,0-.18-.67A1.65,1.65,0,0,0,32.3,30.88Z" transform="translate(-0.22)"/><path class="cls-1" d="M27.44,49.21c-.08.24-1.23,2-1.23,2C24,54,21.73,52.4,21.73,52.4a.85.85,0,0,0,.33.73A4.82,4.82,0,0,0,25.41,53C27.33,52.24,27.53,49,27.44,49.21Z" transform="translate(-0.22)"/><path class="cls-1" d="M28.37,24s2,.26,2.17-1-.41-2.09-.62-2c0,0,.4,1.79-.05,2.27A4,4,0,0,1,28.37,24Z" transform="translate(-0.22)"/><path class="cls-1" d="M29.47,46.64a3.12,3.12,0,0,1-1.53-.06,3.93,3.93,0,0,1-1-.45,2,2,0,0,0,1.92,1.06s2.33.12,2.33-1.9c0-.17-.16.32-.56.72A3.25,3.25,0,0,1,29.47,46.64Z" transform="translate(-0.22)"/><path class="cls-1" d="M6,29.32H6Z" transform="translate(-0.22)"/></g><g id="M_N" data-name="M &amp; N"><path class="cls-1" d="M14.26,28.88a1.32,1.32,0,0,1,1.05,0,3.13,3.13,0,0,0,1.06-.06,3.28,3.28,0,0,0,1.6.13c.6-.21.47-.34.47-.34s-1.45-.72-1.66-.9-1.09.12-1.22.11-.51-.31-.77-.27a6.72,6.72,0,0,0-1,.58c-.14.08-1,.37-1,.51S13.91,29,14.26,28.88Z" transform="translate(-0.22)"/><path class="cls-1" d="M13.92,25.89a.66.66,0,0,1,.41-.07,1.82,1.82,0,0,1,.57.33,3.52,3.52,0,0,0-.69-.22C14.12,25.94,13.94,25.93,13.92,25.89Z" transform="translate(-0.22)"/><path class="cls-1" d="M9.1,27.8s1.69,4.58,5.84,5.32c.39.07-1.15-.74-2.6-1.89a22.91,22.91,0,0,1-2.41-2.46,10.05,10.05,0,0,1-.83-1" transform="translate(-0.22)"/></g><path class="cls-1" d="M16.38,29.14c-.26,0-.49-.11-.78-.13s-.53.1-.78.13a3.39,3.39,0,0,1-.93-.07,1.42,1.42,0,0,0,.08.2,1.13,1.13,0,0,0,1.2.79l.43,0,.43,0a1.14,1.14,0,0,0,1.2-.79l.08-.2A3.39,3.39,0,0,1,16.38,29.14Z" transform="translate(-0.22)"/><g id="Eyes"><path class="cls-1" d="M9.78,20.11a1.13,1.13,0,0,0,1.29.92,1.11,1.11,0,0,0,.87-.9l-1-.53-1.13.11A1.08,1.08,0,0,0,9.78,20.11Z" transform="translate(-0.22)"/><g id="E_B" data-name="E &amp; B"><path class="cls-1" d="M10.24,21.38a1.16,1.16,0,0,0-.49.33c0,.05-.06-.08,0-.23s.15-.23.22-.22" transform="translate(-0.22)"/><path class="cls-1" d="M9.65,21.2a1.23,1.23,0,0,0-.55.38c0,.05-.07-.1,0-.27s.18-.26.25-.25" transform="translate(-0.22)"/><path class="cls-1" d="M9.05,20.91a1.37,1.37,0,0,0-.59.41c-.05.05-.07-.11,0-.29s.22-.32.3-.31" transform="translate(-0.22)"/><path class="cls-1" d="M12.38,20.12a3.92,3.92,0,0,0-1.24-.56,5.23,5.23,0,0,0-.89-.12,3.36,3.36,0,0,0-1.88.45L8.08,20a.57.57,0,0,1-.19,0,3.07,3.07,0,0,0,.7.74,4.25,4.25,0,0,0,1.75.76A4.87,4.87,0,0,0,13.06,21,1.77,1.77,0,0,0,12.38,20.12ZM12,21.19a9.39,9.39,0,0,1-1.24.14A2.6,2.6,0,0,1,9.66,21a4.21,4.21,0,0,1-.78-.59A3,3,0,0,1,10,19.88a2.62,2.62,0,0,1,1.16,0,4.18,4.18,0,0,1,1,.39,4.94,4.94,0,0,1,.83.61A6.55,6.55,0,0,1,12,21.19Z" transform="translate(-0.22)"/></g></g></g><text class="cls-2" transform="translate(38.85 32.33) scale(1.2 1)">Evolutio</text></svg>