<svg id="Layer_1" data-name="Layer 1" xmlns="http://www.w3.org/2000/svg" viewBox="0 0 33.26 53.36"><g id="Logo"><g id="hair"><path id="Brow" d="M8.41,17a11.74,11.74,0,0,1,2.78.22,3.31,3.31,0,0,1,1,.67c.38.38.65.65.76.64s.12-.5-.34-1a2.56,2.56,0,0,0-1.09-.8,5.41,5.41,0,0,0-1.36-.18,14.49,14.49,0,0,0-1.67.1" transform="translate(-0.37)"/><path d="M27.47,22.91a8.37,8.37,0,0,1-.33-3.36,6.34,6.34,0,0,1,1.38-2.78C30,15,29.78,12.31,29.58,10.9A5.72,5.72,0,0,0,28.5,8.27c-.37-.6,1.79,1.09,2,2.3s.73,3.81-.8,5.9-2.19,2.59-2.37,4A6.59,6.59,0,0,0,27.47,22.91Z" transform="translate(-0.37)"/><path d="M10.57,31.11c-.24-.52-3.68-2.3-4.77-3.28-.22-.19.82.22,1.41.55a24.51,24.51,0,0,1,2.27,1.5A7.48,7.48,0,0,0,9,29.25a9.74,9.74,0,0,1-1.32-1.9,3.45,3.45,0,0,1-.2-.32c-1.26-2.31-.42-6-.24-6.79s3.72-7.19,4-8.75a5,5,0,0,0-.1-1.72A24.07,24.07,0,0,1,9,14.18a33.07,33.07,0,0,1-2.33,3.15c-.41.28,2-3.56,2-3.77s-4.33,3.1-5.32,5.11C2.41,20.52,2,22.21,2.26,23.22c0,0-.89-3.14-.41-4.79a8.24,8.24,0,0,1,.66-1.79l-.7.69A12.4,12.4,0,0,1,6.53,6.63,19.59,19.59,0,0,0,4,11c-.73,1.84-.78,4.15-.5,4.33S8.2,13.19,9.1,11a13,13,0,0,0,.84-5.11,1.73,1.73,0,0,0-.8-1.31A3.67,3.67,0,0,0,6.8,3.78,8.07,8.07,0,0,0,3.64,5.39C-.27,8.1.37,14.1.47,14.94c.07.53,1.67,2.54,1,3.69C-.88,22.52,4.21,28.2,4.21,28.2c0,5.32,3.4,6.59,4.72,8.32a3.54,3.54,0,0,1,.4,3.57s1.79-1.21,2.54-5.35A5,5,0,0,0,10.23,30C10.5,30.66,10.75,31.48,10.57,31.11ZM5.09,26.58a6.13,6.13,0,0,1-.65-2.86,5,5,0,0,1,.88-2.56,11.29,11.29,0,0,1,1.21-1.41s-1.35,2.63-1.3,3.92a8.43,8.43,0,0,0,.93,3.69A2,2,0,0,1,5.09,26.58Zm3.29,4.78a6.36,6.36,0,0,1-1.84-1.21,2,2,0,0,1-.38-.83h0c0,.08.22.65,2.34,1.36a4,4,0,0,1,2.56,3.22A5.73,5.73,0,0,0,8.38,31.36Z" transform="translate(-0.37)"/><path d="M7.51,36.06a7.89,7.89,0,0,1,.21,3.11c-.3,1.12-1.85,1.89-1.85,1.89s.64.82,2.33-1S7.51,36.06,7.51,36.06Z" transform="translate(-0.37)"/><path d="M17.15,8.1c4.44.88,5.19,6.76,6,11,.28,1.54,2.23,3.15,2.47,3.39a4,4,0,0,0,1.83,1c.09-.09-.3-.6-.49-1.28a7.38,7.38,0,0,1,.38-4.66c.9-2.44,2-5,1.55-7.25S26.57,6.1,24.18,4.7A16.11,16.11,0,0,0,16,2.27l-.38,0a3,3,0,0,1,.38,0c1.4,0,6.34,0,9.11,2.55.39.36-1.87-3.67-5.84-4.4s-5.72-.52-7.66.77-2,2.66-2,2.66S10.53,6.78,17.15,8.1Z" transform="translate(-0.37)"/><path d="M31.74,33.93c-1-2.5-5.41-2-7.61-2.9s-2.08-1.31-2.1-1c-.2,2.72,6.43,5,6.43,5s-6.93-.13-7.45-3.06,1.67-3,1.67-3a3.23,3.23,0,0,1-1.75-1c-.81-.89-.69-2.47-.49-2.07s2.18,3,4.34,3.25a5.24,5.24,0,0,0,3.89-1.45,5.21,5.21,0,0,1-2.79.05c-.85-.16-4.23-2.37-4.18-8.93S20.65,11.83,19,10a4.31,4.31,0,0,0-3-1c2.93.52,3.9,5.26,3.67,4.92-1.61-2.42-8.8-7.31-8.8-7.31A3.22,3.22,0,0,0,11.36,9c.78,1,2.39,2,3.18,3.24a9.2,9.2,0,0,1,1.22,5.16c-.09,1.57-.87,4.11-.62,6.66.25,2.39,4.49,4.14,5,4.34,0,0,.05,0,.05,0h0l-.05,0c-.15,0-.63.15-1.54,2.61C17.47,34,21,39.5,21,39.5c-1.93,0-3.17-2.58-3.17-2.58a6.47,6.47,0,0,0,.6,3.29h0a5.74,5.74,0,0,0,.13,2.61,4,4,0,0,0,2,2.34c2.51,1.24,3.51,1.43,3.71,2.4s-.55,3.54-1.24,4c0,0,4.55-.43,3.75-5a3.34,3.34,0,0,0-1.55-1.47c-1-.47-2.42-.7-3.67-1.17a5.46,5.46,0,0,1-2.18-1.31c-.37-.45-.28-1-.39-1.3a3.09,3.09,0,0,0,.67.95,8.8,8.8,0,0,0,5.45,1.56A3.9,3.9,0,0,1,28,45.09c.34.34-.51-1.34-1.11-2.47a29.35,29.35,0,0,0-3.64-1.07,29.35,29.35,0,0,1,3.64,1.07l-.52-1a1.68,1.68,0,0,1,1.72,1.39v0a13,13,0,0,0,.32,1.32c.22.67.17,1.43.34,1.48s.3-.74.42-1.4a7.85,7.85,0,0,1,.15-.87c.14-.91.25-1.75.25-1.75S32.75,36.43,31.74,33.93Zm-2.66,7.76s-2.91-1.75-3.87-2.18a13.39,13.39,0,0,1-3.36-2.42c-.12-.34,3.18.65,4.43,1.18a9.64,9.64,0,0,1,2.61,1.44A3.18,3.18,0,0,1,29.08,41.69Zm-4.92-5A3.75,3.75,0,0,1,22,35.94a3.62,3.62,0,0,1-1.31-2.37,12.08,12.08,0,0,0,3.09,2.19c1.19.38,4,.89,4.5,1.23l1.27.84A38.75,38.75,0,0,0,24.16,36.66Z" transform="translate(-0.37)"/><path d="M30.62,24.72a3.59,3.59,0,0,1-2.73.87,5.72,5.72,0,0,1-2.3-.87c-1.4-1-3-2.78-3-3.83-.29.52.29,2.73.89,4.05a5.18,5.18,0,0,0,2.18,2.33,5.69,5.69,0,0,0,2.65.17,5.07,5.07,0,0,0,2.8-1.16,5,5,0,0,0,.86-3.74A5.09,5.09,0,0,1,30.62,24.72Z" transform="translate(-0.37)"/><path d="M30.76,27.86a6.24,6.24,0,0,1-4.63,1.51,11.48,11.48,0,0,0,3.2.39,4.42,4.42,0,0,0,2.94-.86c2.33-2,.57-5.35.57-4.82A4.81,4.81,0,0,1,30.76,27.86Z" transform="translate(-0.37)"/><path d="M32.45,30.88c-2.33-.86-7.77-.17-7.77-.17s2.27.37,4.29.88a8.8,8.8,0,0,1,2.81,1,2.31,2.31,0,0,1,.69.73,2.89,2.89,0,0,1,.27.56c.2.61.14,1.82.22,1.67a6.47,6.47,0,0,0,.58-1.77,5.19,5.19,0,0,0,.08-1.3,3.65,3.65,0,0,0-.18-.67A1.65,1.65,0,0,0,32.45,30.88Z" transform="translate(-0.37)"/><path d="M27.59,49.21c-.08.24-1.23,2-1.23,2C24.12,54,21.88,52.4,21.88,52.4a.85.85,0,0,0,.33.73A4.79,4.79,0,0,0,25.55,53C27.48,52.24,27.68,49,27.59,49.21Z" transform="translate(-0.37)"/><path d="M28.52,24s2,.26,2.17-1-.41-2.09-.62-2c0,0,.4,1.79-.05,2.27A4,4,0,0,1,28.52,24Z" transform="translate(-0.37)"/><path d="M29.62,46.64a3.12,3.12,0,0,1-1.53-.06,3.93,3.93,0,0,1-1-.45A2,2,0,0,0,29,47.19s2.33.12,2.33-1.9c0-.17-.16.32-.56.72A3.25,3.25,0,0,1,29.62,46.64Z" transform="translate(-0.37)"/><path d="M6.16,29.32h0Z" transform="translate(-0.37)"/></g><g id="M_N" data-name="M &amp; N"><path d="M14.41,28.88a1.32,1.32,0,0,1,1.05,0,3.07,3.07,0,0,0,1.05-.06,3.33,3.33,0,0,0,1.61.13c.6-.21.47-.34.47-.34s-1.45-.72-1.67-.9-1.09.12-1.21.11-.51-.31-.77-.27a7.16,7.16,0,0,0-1,.58c-.14.08-1,.37-1,.51S14.06,29,14.41,28.88Z" transform="translate(-0.37)"/><path d="M14.07,25.89a.66.66,0,0,1,.41-.07,1.73,1.73,0,0,1,.56.33,3.63,3.63,0,0,0-.68-.22C14.27,25.94,14.09,25.93,14.07,25.89Z" transform="translate(-0.37)"/><path d="M9.25,27.8s1.69,4.58,5.84,5.32c.39.07-1.15-.74-2.6-1.89a24.07,24.07,0,0,1-2.42-2.46,11.2,11.2,0,0,1-.82-1" transform="translate(-0.37)"/></g><path d="M16.53,29.14c-.26,0-.49-.11-.78-.13s-.53.1-.78.13a3.39,3.39,0,0,1-.93-.07,1.42,1.42,0,0,0,.08.2,1.13,1.13,0,0,0,1.2.79l.43,0,.43,0a1.14,1.14,0,0,0,1.2-.79l.08-.2A3.39,3.39,0,0,1,16.53,29.14Z" transform="translate(-0.37)"/><g id="Eyes"><path d="M9.93,20.11a1.13,1.13,0,0,0,1.29.92,1.11,1.11,0,0,0,.87-.9l-1-.53-1.13.11A1.08,1.08,0,0,0,9.93,20.11Z" transform="translate(-0.37)"/><g id="E_B" data-name="E &amp; B"><path d="M10.38,21.38a1.16,1.16,0,0,0-.48.33c0,.05-.06-.08,0-.23s.15-.23.22-.22" transform="translate(-0.37)"/><path d="M9.8,21.2a1.29,1.29,0,0,0-.56.38c0,.05-.06-.1,0-.27s.18-.26.25-.25" transform="translate(-0.37)"/><path d="M9.2,20.91a1.37,1.37,0,0,0-.59.41c0,.05-.07-.11.05-.29s.22-.32.3-.31" transform="translate(-0.37)"/><path d="M12.53,20.12a4,4,0,0,0-1.24-.56,5.23,5.23,0,0,0-.89-.12,3.33,3.33,0,0,0-1.88.45L8.23,20a.57.57,0,0,1-.19,0,3.07,3.07,0,0,0,.7.74,4.25,4.25,0,0,0,1.75.76A4.87,4.87,0,0,0,13.21,21,1.77,1.77,0,0,0,12.53,20.12Zm-.42,1.07a9.39,9.39,0,0,1-1.24.14A2.6,2.6,0,0,1,9.81,21,4.21,4.21,0,0,1,9,20.42a2.89,2.89,0,0,1,1.07-.54,2.62,2.62,0,0,1,1.16,0,4.18,4.18,0,0,1,1,.39,4.94,4.94,0,0,1,.83.61A6.55,6.55,0,0,1,12.11,21.19Z" transform="translate(-0.37)"/></g></g></g></svg>